<?xml version="1.0" encoding="UTF-8" standalone="no"?>
<svg width="20px" height="20px" viewBox="0 0 20 20" version="1.1" xmlns="http://www.w3.org/2000/svg" xmlns:xlink="http://www.w3.org/1999/xlink">
    <!-- Generator: Sketch 3.6.1 (26313) - http://www.bohemiancoding.com/sketch -->
    <title>filter</title>
    <desc>Created with Sketch.</desc>
    <defs></defs>
    <g id="Page-1" stroke="none" stroke-width="1" fill="none" fill-rule="evenodd">
        <g id="Artboard-19" transform="translate(-40.000000, -46.000000)" fill="#666666">
            <path d="M40,50 L43,50 L43,51 L40,51 L40,50 Z M48,50 L60,50 L60,51 L48,51 L48,50 Z M40,60 L43,60 L43,61 L40,61 L40,60 Z M48,60 L60,60 L60,61 L48,61 L48,60 Z M40,55 L52,55 L52,56 L40,56 L40,55 Z M57,55 L60,55 L60,56 L57,56 L57,55 Z M45.5,52 C46.3284271,52 47,51.3284271 47,50.5 C47,49.6715729 46.3284271,49 45.5,49 C44.6715729,49 44,49.6715729 44,50.5 C44,51.3284271 44.6715729,52 45.5,52 Z M45.5,52.9 C44.1192881,52.9 43,51.8030976 43,50.45 C43,49.0969024 44.1192881,48 45.5,48 C46.8807119,48 48,49.0969024 48,50.45 C48,51.8030976 46.8807119,52.9 45.5,52.9 Z M45.5,62 C46.3284271,62 47,61.3284271 47,60.5 C47,59.6715729 46.3284271,59 45.5,59 C44.6715729,59 44,59.6715729 44,60.5 C44,61.3284271 44.6715729,62 45.5,62 Z M45.5,62.9 C44.1192881,62.9 43,61.8030976 43,60.45 C43,59.0969024 44.1192881,58 45.5,58 C46.8807119,58 48,59.0969024 48,60.45 C48,61.8030976 46.8807119,62.9 45.5,62.9 Z M54.5,57 C55.3284271,57 56,56.3284271 56,55.5 C56,54.6715729 55.3284271,54 54.5,54 C53.6715729,54 53,54.6715729 53,55.5 C53,56.3284271 53.6715729,57 54.5,57 Z M54.5,57.9 L54.5,57.9 C53.1192881,57.9 52,56.8030976 52,55.45 C52,54.0969024 53.1192881,53 54.5,53 C55.8807119,53 57,54.0969024 57,55.45 C57,56.8030976 55.8807119,57.9 54.5,57.9 L54.5,57.9 Z" id="Path"></path>
        </g>
    </g>
</svg>