<?xml version="1.0" encoding="UTF-8" standalone="no"?>
<svg width="20px" height="20px" viewBox="0 0 20 20" version="1.1" xmlns="http://www.w3.org/2000/svg" xmlns:xlink="http://www.w3.org/1999/xlink">
    <!-- Generator: Sketch 3.6.1 (26313) - http://www.bohemiancoding.com/sketch -->
    <title>phone</title>
    <desc>Created with Sketch.</desc>
    <defs></defs>
    <g id="Page-1" stroke="none" stroke-width="1" fill="none" fill-rule="evenodd">
        <g id="Artboard-19" transform="translate(-120.000000, -46.000000)" fill="#666666">
            <path d="M135.48215,65.0001879 L135.48215,65.0001879 L135.462765,65 C136.4368,65 137.943445,63.6491122 138.287854,62.5825875 C138.359511,62.3607515 138.375969,62.4073274 138.440172,62.4490124 L138.34692,62.380483 C137.074015,61.3263698 134.955759,60.0260871 134.324858,59.8951723 L134.261713,59.882191 L134.463078,58.9026748 L134.600846,59.8931393 L134.542446,59.9012472 C134.420161,59.9189436 134.326433,59.9879522 134.051414,60.284148 C133.419053,60.9650867 132.941037,61.2342457 132.10519,61.1205869 C131.417485,61.0268745 130.423737,60.1993331 128.640123,58.1326859 L127.762199,57.0923643 C125.984145,54.9406338 125.331462,53.8125944 125.379063,53.1086688 C125.43559,52.2522575 125.808857,51.8572469 126.646868,51.391685 C126.736795,51.3417108 126.771255,51.3223072 126.814732,51.2968188 C127.022833,51.1748221 127.096734,51.1043332 127.127055,51.0258365 L127.149759,50.9677625 L128.081114,51.3318758 L127.081179,51.3432867 L127.080416,51.2745626 C127.077497,50.6739764 126.196465,48.4207394 125.407172,47.0439249 L125.357438,46.9448086 C125.372164,46.9787279 125.403185,47 125.231757,47 C124.060311,47 122.196414,48.2351622 122.041287,49.1910448 C121.721254,51.1621252 123.228142,54.4950296 126.145939,57.9560388 L127.286141,59.3081779 C130.212628,62.7789981 133.302763,64.8933557 135.376435,64.9981382 L135.48215,65.0001879 Z M135.462765,66 L135.35705,65.9979503 C132.912108,65.8749701 129.60938,63.6148669 126.52163,59.9527893 L125.381462,58.6006901 C122.293003,54.9372459 120.676049,51.359888 121.054214,49.0307792 C121.320986,47.3869436 123.809916,46 125.231757,46 C125.932744,46 126.186036,46.3422949 126.274724,46.5465788 C127.080008,47.9512862 128.076148,50.39381 128.080405,51.2697025 L128.081114,51.3318758 L128.05841,51.3899498 C127.880325,51.8511256 127.483005,52.0711236 127.132511,52.2658422 C126.671335,52.522051 126.40882,52.6908072 126.376892,53.1745294 C126.366959,53.3214225 126.496088,53.9902982 128.533066,56.4553684 L129.404334,57.4877191 C131.446988,59.8544051 132.089796,60.1092474 132.240211,60.1297441 C132.732604,60.1967 132.964611,59.9849008 133.318653,59.6036621 C133.588263,59.3132921 133.894058,58.9846616 134.399223,58.9115567 L134.463078,58.9026748 L134.526224,58.9156561 C135.415229,59.1001264 137.692728,60.5403614 138.98473,61.6102893 C139.172038,61.7319031 139.49699,62.0926451 139.239441,62.8899669 C138.835025,64.1423154 137.071205,66 135.462765,66 L135.462765,66 Z" id="Imported-Layers"></path>
        </g>
    </g>
</svg>